<svg xmlns:xlink="http://www.w3.org/1999/xlink" xmlns="http://www.w3.org/2000/svg" width="30.001" height="30" viewBox="0 0 30.001 30"><path d="M17,12.5A4.5,4.5,0,1,0,21.5,17,4.5,4.5,0,0,0,17,12.5Zm0-3A7.5,7.5,0,1,1,9.5,17,7.5,7.5,0,0,1,17,9.5Zm9.75-.377A1.875,1.875,0,1,1,24.878,7.25a1.875,1.875,0,0,1,1.874,1.874ZM17,5c-3.711,0-4.317.011-6.044.087a8.16,8.16,0,0,0-2.7.5A4.617,4.617,0,0,0,5.585,8.257a8.129,8.129,0,0,0-.5,2.7C5.011,12.613,5,13.192,5,17c0,3.711.011,4.317.087,6.044a8.166,8.166,0,0,0,.5,2.7,4.665,4.665,0,0,0,2.673,2.675,8.166,8.166,0,0,0,2.7.5c1.65.078,2.235.087,6.044.087,3.711,0,4.317-.011,6.044-.087a8.19,8.19,0,0,0,2.7-.5,4.665,4.665,0,0,0,2.676-2.673,8.164,8.164,0,0,0,.5-2.7c.078-1.65.087-2.235.087-6.044,0-3.711-.011-4.317-.087-6.044a8.191,8.191,0,0,0-.5-2.7,4.368,4.368,0,0,0-1.05-1.622,4.326,4.326,0,0,0-1.622-1.05,8.135,8.135,0,0,0-2.7-.5C21.39,5.009,20.811,5,17,5Zm0-3c4.076,0,4.584.015,6.183.09a11.036,11.036,0,0,1,3.641.7,7.308,7.308,0,0,1,2.658,1.73,7.362,7.362,0,0,1,1.733,2.658,11.1,11.1,0,0,1,.7,3.641c.071,1.6.089,2.109.089,6.185s-.015,4.584-.09,6.183a11.072,11.072,0,0,1-.7,3.641,7.667,7.667,0,0,1-4.388,4.388,11.1,11.1,0,0,1-3.641.7c-1.6.071-2.109.09-6.183.09s-4.584-.015-6.185-.09a11.075,11.075,0,0,1-3.641-.7,7.665,7.665,0,0,1-4.388-4.386,11.068,11.068,0,0,1-.7-3.641C2.02,21.585,2,21.076,2,17s.015-4.584.09-6.183a11.029,11.029,0,0,1,.7-3.642,7.319,7.319,0,0,1,1.73-2.658,7.35,7.35,0,0,1,2.658-1.73,11.062,11.062,0,0,1,3.641-.7C12.418,2.018,12.927,2,17,2Z" transform="translate(-2 -2)" fill="#161616"></path></svg>