<svg xmlns="http://www.w3.org/2000/svg" width="274.974" height="174.248" viewBox="0 0 274.974 174.248"><g transform="translate(0)"><path d="M274.974,131.669l-6.853-12.045-4.569-18.483-1.662-50.677-1.75-3.021.087-2.169-2.711-2.783h0L244.236,28.867l-20.559-7.894H212.669l-2.258.589.632,1.462-1.745.814-.705-1.8-5.478,1.429L189.65,22.324l.213,2.213-1.28.582-.9-2.963L185.808,22l-16.962-1.437-8.688.567L161,25.817l-1.629.233-.85-4.814-8.988.587-2.913.191-9.554-1.869-7.652-2.4.049,1.908-1.746.466-.127-2.947-8.382-2.63-6.44-1.247-8.934,2.467h0l-6.848,1.893L86.674,19.321l-.263,2.307L85.828,24.3l-2.095-1.047.462-3.536-1.33.216-.238-.02h0l-1.049-.083.061.979-.93.932-.932-.932.51-1.083-2.361-.188L67.29,18.69l-4.153-.832L58.3,15.149,65,11.215,64.8,7.892l-1.869-2.7L52.752,8.723l-1.246,1.868V9.968l-2.7-4.777L42.16,3.322l-8.929,2.7-7.27-1.869L22.638,0l-.208,4.983,3.115,4.986h4.571l7.478-1.039,4.152.831.137.27-20.074,12.4L21.393,24.3,5.607,34.474,0,36.553v2.906l1.87,8.309L4.777,51.3l3.946-.208,1.869,2.287h10.59l11.631-2.287,3.116,2.7,4.776,7.893L51.921,68.95l1.6,1.084,2.861-2.323,1.4,1.278L55.857,71.61,67.29,79.333l8.721,17.031L83.7,109.034l4.7,2.148,3.946-.532.465,1.747-2.881.275,1.865,13.6,3.118,7.27,3.115,18.274,1.038,2.493-4.153,2.285-4.154,6.644,3.948,1.87,4.983-.414,1.94-.344-2.356,7.4,2.492.415.416,2.078,12.253-2.493v-8.723l1.867-2.077.831-2.907,2.287-.831L116.3,136.034l1.664-8.518,2.688-10.755-3.4-1.573.583-2.441,3.606.854.583-5.743,1.978.582-.819,5.742,25.109-.578,28.66-4.779,4.967.545,1.782-1.045,5.935-.117-.116,2.1-2.832.39,3.141,5.194,5.192,3.946-1.249,4.984,1.87,2.7,3.945-4.775,3.322,1.454.417,6.024,3.321-.209,1.454-7.268,3.948-1.454,2.491,4.361,2.287-1.039-.834-4.984,1.528-.829.55,2.906-1.869,20.77-1.244,8.514-6.856,7.893-.207,2.076,9.761,1.247,3.946-1.042-.207-5.606,1.661-3.74,2.285.623-.83-7.27,2.491-8.72,2.558-11.126-1.058-3.5,1.4-1.164,2.1,4.538-1.176.971.338.726.15,1.865,3.83-2.28,1.746-.466.465,2.674-5.881,2.06.1,1.34,1.869,22.221-3.736,2.908-1.247,2.7-5.192,7.27.624,1.662H237.8l2.673-5.144h0l.024-.05.831-3.738,4.568-3.945-.206-3.738-.832-19.732,7.058-8.873-3.635,1.57-1.163-2.675,4.624-1.926-.655-4.709-2.283-8.512L258.575,65.1l1.03,36.874,3.946,17.446-1.246,3.945,2.491,26.791,7.063,7.478,1.66-1.662-2.906-5.815ZM20.777,40.013l-.582-1.4,1.163-.582.932.7Zm2.444-3.141.815-1.28.581.931-.814.814Zm2.328,6.284-1.163.233.464-1.746.932.116Zm1.862-3.725-.7-.93,1.163-1.048.815.931ZM41.259,53.28l-1.165-.233.349-2.095,1.164.349Zm2.444-27.7-1.281-.465.93-1.979,1.4.7Zm4.654,30.955L47.543,57.7l-.815-.815.815-1.63,1.164.233ZM243.1,36.929l.349.407-.64.642-.348-.583Zm-5.529.233.7.292-.117,1.221h-1.107l-.522-.872Zm-11.4,11.4,3.2-2.734,7.04-1.746,6.75,1.92,2.385,3.609-.117,1.862-6.108,1.047L226.347,53.8l-.409-2.211Zm19.435,25.371.812,1.745-.406,2.674-2.153,1.225-14.022,2.211-1.281-.292.349-1.513,3.317-.7,9.309-1.22,1.107-.991.289-2.326-2.151-2.386L229.2,73.586l-.815-1.047.815-1.047,17.222-2.153.583.93-.174,1.4-3.2.932ZM246.07,85.4l-.174,3.2-3.257,2.153-7.8,1.8-5.3-.814-1.164-1.979.057-2.619,3.609-3.2,7.448-1.338,4.655.754Zm.06-26.417h-2.91s-.176,1.105-.233,1.28-2.5,3.666-2.5,3.666l4.83.116.815,1.105-.583,1.34-17.281.232-.931-.639.7-1.455,8.2-.639,1.571-.116,2.677-4.831-13.091-.465-1.28-.64.057-1.163,16.99-.583,2.328.059.872,1.4ZM223.611,72.6c0,.349-2.444-.35-2.444-.35l-.233-7.68,2.328-.233s.349,7.913.349,8.263m-3.49,25.135.465-6.166,2.328.115L222.8,97.85Zm2.442,2.678-.814,6.982-2.677.465,1.048-7.681Zm-1.978-11.055.233-6.749,2.444.232-.232,6.75Zm.349-8.728.233-5.936,2.329.118-.234,5.7Zm2.212-18.853-2.328.233-.814-5.7,2.326-.232Zm-1.629-8.845-1.979.7-1.746-5.819,1.978-.7Zm-2.445-8.262-1.862.931-2.444-5.935,2.559-.7Zm-6.865,43.795.386.348-.309.778-7.216.076-.931.039.233-.854,2.135-.541-2.172-1.979-.234-.854.7-.193,3.568,2.753,3.685-2.25.621.118-.31.892-2.521,1.589Zm-.622,4.344.233.466v.854l-6.4.039-2.172-.272.115-.7,2.91-.272,1.863-.077,1.24-1.318-1.629-.117-3.878-.309.039-.545,7.136-.037.815.309-.039.814-1.511.04-.622,1.164ZM198.708,65.382l.7,7.565-2.328.581-.466-7.68ZM196.5,63.636l-.815-5.7,1.979-.115.815,5.12Zm2.908,11.869.233,5.239-2.095.116-.349-5.12Zm.117-28.471,1.667-2.172,3.958-1.164,2.365-.156,2.988.971,1.085,2.249-1.629,2.1-7.176,1.512-2.173-.543Zm16.251,18.309.507.427-.117.931-1.747.426-7.369,1.125-2.521.388-.389-2.559-.116-1.862,1.59-1.553,1.786.117,2.4,2.211,3.57-5,.814.193.426,1.087L211,65.888Zm.466,3.646-.193,1.706-10.2,1.049-1.474.037.156-1.513,2.986-.388,7.642-1.048Zm-2.365-10.007-8.882,1.9-1.513.27.193-1.318,1.24-.156,5.044-1.28,2.481-.543L212.052,56l-1.4-.039-.039-1.048,2.288-.581,1.087,3.412Zm-3.064,23.625-.117,1.978-7.447-.117V82.373Zm-1.437,17.959.08-.582,1.9.116s.077,2.249.077,2.368a4.071,4.071,0,0,1-.464.736l-7.332-.349-.582-.581.349-.584,6.44.233.31-1.007ZM209.3,97.54l2.055.5-.077.971-2.444-.2-4.229-.5-1.2-.659-.27-.466,5.313-1.746,2.948-.466.156.815-2.29.778Zm1.047-21.1-2.832,1.2-2.4-.816-.969-1.939-.077-1.784,1.087-.389.659.506L206,74.886l1.59.738,2.638-1.437s2.171-1.474,2.365-1.513,3.1.2,3.1.2l1.2,1.707-.815,1.513-.968-.157-.117-1.2-1.358-.116Zm6.749-40.265-2.908,1.164-1.63-4.305,2.559-.7Zm-5.12-11.636,2.444,5.353s-2.211.581-2.559.581S210,25.235,210,25.235Zm-2.482,14.235.389,1.553L201.5,42.031l-2.561.039s-.156-.852-.156-.969l1.4-.659,8.571-1.9Zm-12.607-6.244,10.435-1.318.543.736-.194.93-1.318.389-1.242,2.482,3.027-.5.66.349.309,1.124L198.67,38.579l-.816-.194.077-1.2,1.668-.5,3.88-.776.736-2.521-6.4.581-.932-.426Zm.659,22.73-1.862.816-.931-6.285,1.86-.581ZM194.52,47.81l-1.513-5.12,1.86-.7,1.28,4.888Zm.348-7.913-2.326.814-1.513-6.051,1.86-.582Zm-4.422-13.266,1.747,5.237-1.747.464-1.513-5.119Zm.815,55.975v1.978h-5.819l.117-1.978Zm-7.951-7.215-1.553.31-1.047,1.161-1.667,1.087-2.755.079-1.823-1.473-.155-1.28.93-.545,1.125,1.2,1.009.545,1.669-.892,2.4-1.592,2.25-.115,1.784,1.087.232,1.9-1.24.389-.466-1.281Zm.27,7.215-.232,2.211H177.76l.117-2.211Zm2.212-10.9-1.4.349-8.843,1.124-1.048-.115.156-1.009,5.12-.854-.969-1.707-1.2-.194-2.754.543-.388-.736.233-.854,9.62-1.28.775.233v1.087l-2.871.5-1.706.31.7,1.822,3.259-.581,1.008.155Zm-1.436-6.557-4.461,1.708-4.267-.543-1.2-1.009-.04-2.095,2.1-1.59,3.53-.582,2.442.078,1.979.775.932,1.745Zm-.776-11.287-.466,1.125-3.335,3.18,4.035-.7.931.35.076.969-10.2,2.095-.543-.5-.269-1.28.037-1.94,1.164-1.28h1.357l2.328,1.474,3.492-3.763.93-.349ZM183,51.3l-.156.775-7.681,1.2.27,1.591-.854.426-.774-.5-1.281-4.7.077-.814,1.124-.04.427,1.63.582,1.048,7.758-1.281Zm-.66-7.488.077,1.009-9.349.659-1.784.04.078-1.32,1.047-.156,6.323-.7,1.2-.231.039-1.786-1.514.27-.232-.541,1.707-.893,1.007-.272Zm-11.521-5.624,1.978-1.63,1.435-.543,2.755-.155,2.056.659.621,1.979-.893,1.473-5.508,1.669-1.9-.426-.854-1.164Zm-.35-2.948-.388-.736.738-.776h9.155l.5.581-.465.855Zm.776-7.022-1.124-.039.27-1.4,8.806-.116,1.2.272v.969l-1.784.31-1.4,2.561,3.22-.079.427.543-.427.931-9.425.117-1.048-.117.389-.891,5-.427,1.317-2.677ZM168.1,82.839l7.564-.232.232,2.211-7.8.348Zm-2.212-10.126-2.445-.232V63.987h2.213Zm.117,7.8a15.353,15.353,0,0,0-2.677-.233c-.466.118.233-5.585.233-5.585l2.209.35Zm-.465-18.968-1.979-.117-.7-6.516,2.212.117Zm-.816-9.308-1.978.349-1.164-8.612,2.211.116Zm-3.141-10.124-.7-5.353,1.63.233.93,4.654ZM161.353,27.8s1.28,6.632,1.28,6.982-1.978.117-1.978.117l-.931-6.983Zm4.538,54.926.117,2.1-6.75.7-.117-2.559Zm-12.1-10.3-10.356,1.686-6.4.988-.349-1.161.465-.584-.406-1.979.466-2.85,2.5-1.92,2.968-.932,2.735,1.048,2.677,3.493,4.771-4.831,3.316-3.549.989.874-.348,2.093-5.47,5.7,5.994-.466.7.7-.581,1.28Zm3.259,10.648v2.674L151,86.1V83.652Zm.582-23.277L151.752,60.9l-14.9,1.8-.988-.523.523-1.979,8.2-1.105,11.23-1.688,1.4.292ZM147.621,32.916l.931.7-1.047,1.28-.7-.932ZM135.808,50.894l1.455-2.095,2.036-1.57,2.445-.176,3.492,1.513.7-1.686,2.329-1.688,3.258-.057,4.189,1.979,1.337,4.364.117,1.8-2.152.815-13.5,1.163-5.7.758-.115-2.559Zm-3.315,34.62,7.8-.7-.232,2.326-7.68,1.047Zm-1.863-50.271H128.42l-.233-6.285,1.862.233ZM128.3,44.087v-7.1l2.328.465-.116,6.4Zm2.212,1.862-.466,6.285-1.862.233.233-6.4Zm-.932-24.786.233,6.167-1.862-.116-.116-6.051Zm-1.4,33.282,1.979-.116-.117,6.982-2.328.348Zm-.7,9.192L129.7,63.4l-.7,6.285h-1.979Zm-.814,8.146,2.212.118-.466,4.537-2.095-.233Zm-.7,6.286h2.212l-.7,5.469-2.093.349Zm-2.559-44.8,1.4.35-.349,1.746-1.513-.233Zm-3.344,69.009-.176.669-3.579-.088-2.561-.436.118-.582,2.705-1.194,1.862-.872.611.029.174.5-1.513.755.292.961,1.746-.03Zm-6.751-4.308-.639-.086.029-.555,5.15-.872.582.088.145.522-1.105.525-.495,1.135,1.368-.233h.639l-.059.784-5.323.7-.406-.059.145-.611,1.368-.2,1.366-.174.5-1.367ZM94.556,81.674l-6.517-1.511-2.328-2.794V73.761L87.924,72.6l2.093-.932.465,1.979-2.211,1.513.466,1.631,5.236,1.394,10.941-.465,3.141-1.4.349-2.212-2.559-1.746-.351-1.63,3.26.931,2.095,3.376-1.4,3.374-4.421,2.559Zm2.675,6.751-.116,2.792-5.353.35L91.3,89.356Zm7.565,2.095-.349-1.978,6.516-.466V90.4Zm.7,13.149-2.151,1.107-2.561-6.225,2.792-.117Zm1.107-6.427.786,2.122.669-.088-.117-1.25.378-.115.409,1.075.93-.262-.289-2.415L110,96.22s.35,1.6.612,3l-3.433,1.131-.146.495-.437-.059s-.581-3.227-.611-3.315Zm1.192,4.274,1.224-.113.7.872.64-1.66.552-.669.437.2-.176.932-.728,1.863,1.893-.38.289.174.087.525-2.445.611-2.442.609-.493-1.1-.117-1.136Zm4.133-9.134.784.233,2.153,2.182,1.338-2.5.553-.406.552.29-.349.9-.989,1.657,2.066-.234.466.174-.059.669-5.5.817-.669-.148v-.522l1.687-.32-2.211-1.92L111.6,92.7Zm-.147-7.564.583-1.049,1.047.118-.466,1.4Zm7.68,2.442.234,2.444-6.866.7-.233-2.093ZM110.616,17.9l1.048-1.048,1.163.932-1.048,1.4-1.163-.233ZM99.444,19.65l.7-.233.349.93-.7,1.165-1.048-.932ZM90.832,32.1l5.934-.465-4.071-6.168-.815-1.979,1.047-.931,2.212,2.328,5.585,6.051,6.749-3.259,5.121-3.84,1.862-1.862,1.4,1.629-2.677,3.376L105.61,31.4l6.518-.233,1.746.466-.349,1.862-6.518.349-12.219.7-4.421-.233Zm-.116,5.585,1.63.7L91.995,40.6l2.679,1.86,10.706.466,3.722-.7.349-2.095-2.095-2.677,1.048-1.746,3.725,2.91.115,3.259L109.335,44.9l-5.469,1.28-9.427-.465-3.958-1.165a27.815,27.815,0,0,1-1.163-3.024c0-.35,1.4-3.842,1.4-3.842M88.271,55.142H99.211l5-.233,1.744-.931.117-2.328-2.328-1.28-7.1.35L88.5,50.255l.35-1.862h7.1l9.309-.466L109.8,47l.816.7-.351,1.63-3.257.581,1.513.816,1.514,2.326s-.7,2.561-.815,2.91-2.677,1.4-2.677,1.4l-10.473.116H87.806Zm-2.444,11.52L91.3,66.2l5.468.581-.232-3.609L88.5,62.59l-1.513-.349.583-1.862,18.27-.117,4.42-.349-.115,2.328-10.589.7.465,3.49,7.8-.232,1.863.7-.466,1.979-9.194-.117-.233.583-1.862.581-.7-.931-1.511-.116L85.6,68.292ZM83.267,24.77l2.1.931-.7,4.305-2.329-.7Zm-4.305,13.5,2.095.931-2.209,5.12L77.1,42.69ZM67.791,23.955l.7.931L67.21,26.05l-.583-1.4ZM59.644,68.06l-1.862-1.746,3.958-3.84L63.6,64.22Zm5.587-5-2.212-1.862,3.725-4.306,2.211,1.862Zm5.469-5.7-2.794-2.1,3.84-3.956,2.329,1.862Zm1.979-7.8,3.373-5,1.979,1.63L75.356,51.65ZM75.7,93.08l-.117-2.1,5-.7.582,1.976Zm4.188-57.023,1.746-4.887,1.979.7L82.1,37.221ZM83.5,92.264l-.581-2.442,6.517-.233.233,1.979ZM86.614,93.4l.378-.087.466,1.018,3.141-.552.32.2-.057.582-1.514.233-1.773.436v.728l-.379.116-.525-1.89Zm.523,3.2.117-.233.262.145.318.932.38.029,1.192-.176-.146-1.133.233-.233.176.406.2.814.726-.115.03-.495-.059-.991.32-.027.32,1.018.029.9-3.229.7-.146.29-.263.117-.262-.758Zm.931,3-.493-.292.116-.466.784.292,1.31,1.047.409-.085.639-1.95h.436l.147.378-.613,1.543,1.049-.233.523-.03-.029.552-3.609.961-.844.2v-.465l1.367-.466Zm.146,2.559c-.029-.085.349-.233.349-.233l.67.436.784.176.67-.407.842-.669,1.048.057.7.263-.26.64-.525-.348a3.072,3.072,0,0,0-.785.2c-.059.085-1.31,1.075-1.31,1.075L89,103.32s-.755-1.077-.785-1.165m.9,1.95,3.141-1.047.612-.2.115.639-3.082.962-.759.173Zm.639,2.444-.057-.611.523-.728,1.018-.145.7.64.583-1.544.349-.057.435.173-.784,1.834.815-.174.465.116-.147.553s-3.171.725-3.432.9Zm.961,3.462-.146-1.077.086-.814.815-.263.758.263V107.6l.815-.495,1.047.436.726.786.088.756-1.018.292Zm4.072,2.152-.581-1.626,3.84-.118.465,1.745Zm3.453,5.7c-.117.153-.854-.814-.854-.814l.736-1.28.893.193s.193.814.193.968-.852.778-.969.932m.621-26.649V88.775l4.073-.118v2.212Zm3.55,1.455.756,3.315-2.562.7-.814-3.955Zm3.454,61.407-.779-1.642-.414-16.613.057-7.265.151.2,1.868,19.52Zm.521-33.11s-.542-.312-.659-.388.543-.852.543-.852l.621.541Zm.621-7.642-6.517-.931-.349-2.095,7.1.93Zm-1.28-3.376-1.4-3.258,1.8-.755L108,110.071Zm3.346-4.946,1.484-.465.9-.03h1.048l.959.729s-.2.9-.233.988a7.6,7.6,0,0,1-1.047.582l-2.735.146-.814-.116-.379-.931Zm-.466,2.708.437-.2.9,1.077.755-.117.029-1.192.379-.059.32,1.192,1.659.029.758-.056.115.667-3.752.409v.319h-.64Zm6.431,7.241-5.353-1.161.349-1.863,5.7.816Zm4.74-6.166-.639-.844-1.105.378-.786,1.048L116,109.9l-.959-.495a12.471,12.471,0,0,1-.466-1.281,6.463,6.463,0,0,1,.262-.872l.581.115-.027.932.7.525.758-.409.959-.959.961-.378,1.105.493.349,1.105Zm.088-2.735-1.747.262-.057.292-.32.174-.2-.378-1.979.289-.7-.086v-.583l2.182-.318-.262-1.048-2.065.436-.32-.262.436-.5,4.858-.872.465.292-.174.552-2.182.525.2.639,1.716-.292.612.117.087.467Zm1.57-16.7-.349-2.444,9.194-1.048.117,2.445Zm2.794,16.989c0,.349-2.095-.116-2.095-.116l1.048-6.983,2.211.117s-1.164,6.632-1.164,6.982m1.164-8.379c0,.466-2.1-.349-2.1-.349l1.513-7.448,1.63.466s-1.047,6.865-1.047,7.331m7.252,2.715,1.2,3.065-.233,2.212-1.085,2.015-1.591.659-.466-1.161,1.2-1.047.5-2.017-.738-1.786s-1.4-3.958-1.4-4.072-.193-2.559-.193-2.755.892-2.248.892-2.248l1.513-1.165,1.436-.155.348,1.2-1.666.931-1.126,1.629-.232,1.513Zm9.389,6.284-.815.234-.542-1.048-.466-5.161-3.065.623.156,3.725-.078,2.093-.852.622-.738-.543-.156-2.4s-.153-8.263-.153-8.379.232-4.733.232-4.733h1.125l.27.736-.077,4.81.194,2.25,2.328-.506.465-.155-.388-5.663.194-1.2.968-.077.389,1.746,1.241,10.822Zm5.313-2.713a12.51,12.51,0,0,1-1.513,1.627l-1.59-.775-1.009-4.268-.466-6.4.854-1.822,1.359-.35.852.312,1.241,2.4.7,5.663s-.426,3.414-.426,3.61M141.919,86.8s-.117-1.979-.117-2.329l7.1-.815-.232,2.561Zm13.848,18.27-.736.659-1.318-.7-3.3-3.645s.117,4.344.156,4.577-.466.621-.466.621l-1.008-.155-.115-3.261-.35-6.749-.233-3.723,2.444-.232,2.017,1.123,1.009,1.784-.506,3.1-1.978,1.667,4.382,3.919Zm4.075-11.251-1.786.7.5,8.341s.233,1.979.233,2.093-1.2.506-1.2.506l-.465-3.22-.465-7.721-2.016.312-.351-1.085.582-.5,5.353-.971.621,1.048ZM167.6,96.84,164.96,98l.156,4.7-.233.814-1.087-.193-.349-2.33-.232-5.817-.117-5.237,3.53-.309,1.9,2.209s.466,3.065.506,3.181A17.756,17.756,0,0,1,167.6,96.84m6.517,5-3.374.118-1.165-.118-.465-.928.5-.427.35-2.677s-.116-5.082-.155-5.2-.04-3.839-.04-3.839l.776-.584.971.739-.2,3.064-.27,7.911,2.289.272.969.66Zm5.082-2.208-1.047.193L176.986,96.8h-2.677s-.969,1.549-1.009,1.667-.775.234-.775.234l-.233-1.048,1.823-4.538,2.133-3.842.5-.039.465.931,2.017,8.183Zm2.948-1.047a5.449,5.449,0,0,1-.545.852l-1.045-.157-.194-1.86.465-6.129-2.442-.312-.117-.774a6.534,6.534,0,0,1,.931-.545l4.537-.076,1.011.892-.545.814-1.746.116s-.309,7.06-.309,7.179M189.9,90.6l-2.871-.273-.233,1.165-.621,3.024,2.638.893-.078.931-.854.077-2.209-.427-.7,2.329,3.22,1.2.233.854-.312.778-4.5-1.358-.465-.7.891-2.445,1.4-5.584.545-2.794,3.568.581.7.778Zm3.1,10.978,2.209,1.047-1.28,3.723a27.5,27.5,0,0,0-2.908.116c-.349.118,1.979-4.886,1.979-4.886m4.654-8.029-1.4,6.516a13.506,13.506,0,0,1-2.328-.932c-.465-.348,1.746-5.935,1.746-5.935ZM197.2,86.1l1.979.466-1.048,5.352a14.16,14.16,0,0,0-1.979-.582c-.348,0,1.048-5.236,1.048-5.236m2.792,24.671-7.8-.466-.234-2.1,8.03.233Zm.233-25.951-6.749-.118V82.488l7.215.233Zm8.612,26.3-6.866-.233-.117-2.095,7.1-.117Zm2.095-4.345-6.749.193-1.281-.115.079-2.91.7-.466.543.543.117,1.667,1.823.04-.04-1.864.543-.193.542.545v1.627l3.53-.075.35.5Zm5.586,5.277-5.353-.353.116-2.791,5.585.814Zm1.86-26.535-5.352-.93v-2.1l5.585.35Zm3.842,27.233-3.376-.7V109.6l3.144-.118,3.024,2.563-1.629,1.626Zm5.12,7.562-3.492-5.121,1.862-1.394,3.027,4.537Zm3.723-8.495-1.164-.466.816-.931.931.118ZM239.9,127.99l-1.164-2.444,6.051-2.1.932,2.677Zm7.1-26.476-8.146,1.454-11,1.165-.116-4.48.989-2.329,2.444-1.338,2.618.35,2.212,3.9,1.569-.06,5.878-8.144.991-.29a7.629,7.629,0,0,1,1.047,1.22,25.883,25.883,0,0,1-1.4,2.27l-4.073,4.83,6.749-.525.525.814Zm-.583-58.882-.464-1.105,1.047-.64.406.059.174,1.28Z" transform="translate(0 0.001)" fill="#fff"/></g></svg>