<svg xmlns:xlink="http://www.w3.org/1999/xlink" xmlns="http://www.w3.org/2000/svg" width="759.876" height="798.949" viewBox="0 0 759.876 798.949"><g transform="translate(-1142.033 -7928.574)"><path d="M-88.75-318h70.5V0h-70.5V-131h-64V0h-70.5V-318h70.5v134.5h64ZM171.75,0l-11-57.5H88.25L77.25,0H6.75l72-318h91l74,318ZM98.25-109.5h52l-26-134.5Zm-119,287h-72v-50q0-12.5-13-12.5h-20.5q-13.5,0-13.5,12.5v195q0,7,3,9.75t10.5,2.75h20.5q7,0,10-2.75t3-9.75V274h72v55q0,55-63.5,55h-64q-63,0-63-55V121q0-55,63-55h64q63.5,0,63.5,55ZM227.25,66l-64,157,64,161h-77L88.75,223l61.5-157Zm-211,318V66h71V384Z" transform="matrix(0.966, -0.259, 0.259, 0.966, 1567.077, 8298.825)" fill="#161616"></path><path d="M-191.76-101.76h22.72L-188.72,0h-27.36l-11.36-66.56L-238.8,0h-27.36l-19.68-101.76h23.68l9.6,76,13.44-76h23.2l13.44,76Zm74.56,0h22.56V0H-117.2V-41.92h-20.48V0h-22.56V-101.76h22.56v43.04h20.48ZM-33.84,0l-3.52-18.4h-23.2L-64.08,0H-86.64L-63.6-101.76h29.12L-10.8,0ZM-57.36-35.04h16.64l-8.32-43.04ZM50.8-101.76v16.8H32.08V0H9.2V-84.96H-9.36v-16.8Zm90.4,0v16.8H122.48V0H99.6V-84.96H81.04v-16.8Zm51.04,0H214.8V0H192.24V-41.92H171.76V0H149.2V-101.76h22.56v43.04h20.48ZM252.08-16.8h32.64V0H229.2V-101.76h54.24v16.8H252.08v24.8H278.8v16.8H252.08Z" transform="matrix(-0.259, -0.966, 0.966, -0.259, 1314.016, 8340.18)" fill="#161616"></path></g></svg>