<svg xmlns="http://www.w3.org/2000/svg" width="90.467" height="106.302" viewBox="0 0 90.467 106.302"><g transform="translate(0)"><path d="M89.948,16.352l-1.89-1.278-2.992-1.406-.487-1.381v0l-.248-.693L82.749,9.885,81.8,7.029l-.024-.074L79.7,5.738l-.974-1.1L77.257,1.832,73.716,0l-1,1.923h0l-.588,1.129L69.569.368l-2.81.734L65.416,3.54,64.1,3.849h0l-.761.178.611,4.763-2.719,5.879-1.062,2.294L54.553,30.269l-1.707,1.953-9.4.852L31.123,35.15l-4.151-1.1-6.225-3.905-3.295-9.4-7.2-4.029L8.463,18.087h0l-.682.517v0l-.09.067-.126,2.685L6.482,22.373l-.594.557L3.784,24.9l-.219.093-.226.1-2.106.9v0L1.221,26,.122,27.95l.734,3.295v4.151L0,39.542,1.463,42.6l2.567,3.66L7.21,55.53,8.3,58.7l3.293,7.079,7.812,2.684,1.585,2.564,9.033,4.882L35.638,78.6l6.47,6.471,1.354.543.475.187,1.953,7.569v5.368l-2.806.856-4.517,1.832-.607.485.3.184.305.183,1.955-.49,1.706.248,5.759-1.089v0l.71-.138,4.029,2.077,4.394.976,3.538,1.463,1.221.977h.488l-.976-1.586-.562-.456-1.393-1.13-5.125-2.44,1.953-.609,5.248.242,1.219-.488,2.93,1.1.368-.733-3.174-1.71-1.342-1.1-3.05.73-3.54.245-5.126-.49-1.708-3.05-.611-9.4.41-.228h0l2.029-1.116,3.05-4.635,3.418-6.1L64.441,70.3l8.422-4.639,3.661-5.124,2.806-2.684.365-3.663,1.833-3.782-.735-13.06.366-4.026-3.293-7.079-.346-1.93-1.5.5-5,3.144,6.982,3.024.7,1.4L77.646,34.12l-4.772-2.212-8.61-3.954-4.305-2.563.93-1.86,3.028,1.048,3.839,1.978,5.934-3.376-9.773-4.072-.7-.932,1.047-1.513L74.27,19.922l4.772,1.746-.233,2.211-.976.326.277,1.118,2.289.368,1.485-1.369,1.535.821,1.1-2.837.34-4.159,2.911-.417,2.7-.32ZM15.311,23.571l.621-.079-.621,1.241-.543-.466Zm-3.181-4.462.582.466-.582,1.047-.7-.582Zm-1.553,2.677.466.155-.156.7-.852.388L9.8,22.1ZM9.491,24.579l.776.31L9.88,26.051l-.7-.465ZM7.63,23.571l.466.308-.31.621-.776.39-.31-.854ZM3.4,39.356,2.354,36.331l2.095-5.119L10.5,27.836l5.237-1.165,2.211,2.445-.117,2.678-2.209-.118.116-2.093-2.678-.233L7.125,32.26,5.146,34.7l.466,2.209,2.561-.233.7,1.282L6.31,39.591ZM13.37,34.12l-.7.931-.7-.7.776-.619ZM10.5,53.671l-1.278-1.4L10.5,50.064l6.168-5.586-2.677-3.609L8.173,44.827l-1.63.814L5.5,44.012l2.677-2.677,8.61-6.4,4.191-2.326,1.163,2.1L16.55,38.776l2.562,3.839,7.913-6.4L29,36.565V37.5l-5.469,4.421L13.409,51.461ZM24.076,67.093l-.852-.7.93-.932.466.545Zm-5.43-8.767,1.746,4.424-1.746.7-5.352-4.075-.467-1.862,1.281-1.278,1.979.7,1.745-1.513L23.3,48.2l6.866-7.1-.7-.7-.349-1.4,1.047-1.165,2.444.932,2.211,2.559-1.047,1.631-1.28-.466-7.448,8.262Zm8.225,12.645-.622-.621.622-.931.7,1.011Zm19.936.273-3.141,2.91-5.236.93-6.75-2.561-3.49-8.262,3.373-13.616,5.121-9.89,4.189-3.725,2.908-.35,2.445,1.282,1.047,2.326-1.746.7-1.862-2.329-2.559.7L37.614,43.9,33.308,55.533l-.7,11.405,1.863,2.211,3.49,2.209,5-2.792,2.559-2.908,2.445.815Zm-3.336-9.737.389.543-.621.776L38.2,61.35l-3.1-1.626.931-1.94,1.4-.621,1.939.309,1.087,2.1,2.095-.856,1.473-.621.233,1.242-2.871,1.629Zm-1.008,4.421-.232,1.085-6.44-.7-1.862-.39s.465-4.964.465-5.2l1.241.233.156,3.878,1.241.312L37.5,63.6l.852.079.156,1.473,3.181.08ZM43.7,56.851,37.5,56.232l-1.474-.312-.156-.93.776-3.337.621-.155.465,1.087-.309,2.326,2.328.079.388-2.172h.93l.31,2.4,1.553.078.233-2.25,1.085-.076.31,3.723Zm-.156-5.12-3.024.232-2.173-1.316-.621-2.485,1.164-.466.389,1.4.7,1.087,1.629.076,2.172-.621,2.095.854,1.242,1.863-.852.852-1.087-1.474Zm-3.8-7.6.077-.7,4.034.541,2.483.155.309,1.32-3.181.077-.077,1.631,2.561.309V48.7l-2.87-.232-4.422-1.707.155-.852,3.025.312.389-1.087ZM66.358,64.841,61.47,60.536,52.626,52.39l1.746,10.24,1.048,7.333V72.29l-3.027.117-1.28-6.75s-1.746-15.246-1.746-15.709-.815-11.29-.815-11.29l1.746-.815,1.164,4.189.582,3.376,3.027-5.239,1.28-3.257,2.095,1.049L53.557,48.9l6.75,6.285,6.284,6.284.815,2.792ZM59.22,42.886l.543.312.077.7-1.241.622-.388-1.085Zm1.94,8.381.389-1.165,1.007.233s-.465,1.087-.542,1.318-.854-.386-.854-.386m5.586-19.242,1.087.775-.932.932-.931-.7Zm-6.44-3.257L62.17,28.3l.93,1.4-.815,1.86-1.4,3.374L69.5,43.546l3.025-3.723,1.514.234L73.572,42.5l-1.978,3.839,2.561,3.143,4.421-5.354,2.095,1.049-4.191,8.379-1.4.348-5.12-5L61.12,38.89l-4.3-4.3Z" transform="translate(0)" fill="#fff"/></g></svg>