<svg version="1.1" xmlns="http://www.w3.org/2000/svg" xmlns:xlink="http://www.w3.org/1999/xlink" x="0px" y="0px" width="24" height="24" viewBox="0 0 24 24" style="enable-background:new 0 0 24 24;" xml:space="preserve">
<path d="M12,0C8.741,0,8.333,0.015,7.053,0.072C5.775,0.132,4.905,0.333,4.14,0.63C3.351,0.936,2.681,1.347,2.015,2.015
	C1.347,2.681,0.935,3.35,0.63,4.14c-0.297,0.765-0.5,1.635-0.558,2.913C0.012,8.333,0,8.741,0,12c0,3.26,0.015,3.668,0.072,4.947
	c0.06,1.277,0.261,2.149,0.558,2.913c0.306,0.789,0.717,1.459,1.385,2.125c0.666,0.668,1.335,1.08,2.125,1.385
	c0.765,0.297,1.635,0.499,2.913,0.558C8.333,23.988,8.741,24,12,24c3.26,0,3.668-0.015,4.947-0.072
	c1.277-0.06,2.149-0.261,2.913-0.558c0.789-0.306,1.459-0.717,2.125-1.385c0.668-0.666,1.08-1.335,1.385-2.125
	c0.297-0.766,0.499-1.636,0.558-2.913C23.988,15.668,24,15.26,24,12c0-3.259-0.015-3.667-0.072-4.947
	c-0.06-1.278-0.261-2.15-0.558-2.913c-0.306-0.789-0.717-1.459-1.385-2.125c-0.666-0.667-1.335-1.08-2.125-1.385
	c-0.766-0.297-1.636-0.5-2.913-0.558C15.668,0.012,15.26,0,12,0z M12,2.16c3.204,0,3.585,0.015,4.85,0.072
	c1.17,0.054,1.805,0.249,2.228,0.414c0.561,0.217,0.96,0.477,1.38,0.897s0.68,0.819,0.896,1.38c0.165,0.423,0.36,1.058,0.414,2.228
	c0.058,1.266,0.071,1.646,0.071,4.85s-0.016,3.585-0.075,4.85c-0.061,1.17-0.255,1.805-0.42,2.228c-0.226,0.561-0.48,0.96-0.9,1.38
	s-0.825,0.68-1.38,0.897c-0.42,0.164-1.065,0.359-2.235,0.413c-1.274,0.058-1.649,0.071-4.86,0.071c-3.21,0-3.585-0.016-4.86-0.075
	c-1.17-0.061-1.815-0.255-2.235-0.42c-0.57-0.226-0.96-0.48-1.38-0.9c-0.42-0.42-0.69-0.825-0.9-1.38
	c-0.165-0.42-0.36-1.065-0.42-2.235c-0.045-1.26-0.06-1.649-0.06-4.845c0-3.195,0.015-3.585,0.06-4.86
	c0.06-1.17,0.255-1.815,0.42-2.235c0.21-0.57,0.48-0.96,0.9-1.38c0.42-0.42,0.81-0.69,1.38-0.9c0.42-0.165,1.05-0.36,2.22-0.42
	c1.275-0.045,1.65-0.06,4.86-0.06L12,2.16z M12,5.838c-3.405,0-6.162,2.76-6.162,6.162c0,3.405,2.76,6.162,6.162,6.162
	c3.405,0,6.162-2.76,6.162-6.162C18.162,8.595,15.402,5.838,12,5.838z M12,16.001c-2.209,0-4-1.791-4-4.001c0-2.209,1.791-4,4-4
	c2.21,0,4,1.791,4,4C16,14.21,14.21,16.001,12,16.001z M19.845,5.595c0,0.795-0.645,1.44-1.439,1.44s-1.44-0.645-1.44-1.44
	c0-0.795,0.646-1.44,1.44-1.44S19.845,4.8,19.845,5.595z" fill="#FFFFFF"></path>
</svg>