<svg xmlns="http://www.w3.org/2000/svg" width="34" height="27.458" viewBox="0 0 34 27.458"><g transform="translate(-1440.755 -3719.078)"><g transform="translate(1446.031 3746.804) rotate(-130)"><path d="M.61,2.686a3.052,3.052,0,0,1,.258,1.24C.74,4.6.791,5.216.662,5.888A14.342,14.342,0,0,0,.481,8.005,4.567,4.567,0,0,0,.765,9.555c.129.439.31,1.11.465,1.549h0a3.775,3.775,0,0,1,.129.516l3.28-.723c0-1.24.026-1.911.026-2.97,0-1.6.026-3.176.1-4.777.026-.542.052-1.085.077-1.653A2.461,2.461,0,0,0,4.587.129L4.458,0,.146.93a1.158,1.158,0,0,0-.1.878c.155.31.465.542.568.878" transform="translate(0.349 0)" fill="#fff"/><path d="M4.73,5.294h0c0-.775,0-3.047-.026-3.848,0-.258-.026-.516-.026-.8A2.505,2.505,0,0,0,4.652.207c0-.1,0-.1-.1-.155C4.5.026,4.446.026,4.394,0L.366.9C.288,2.092.03,4.468.03,5.526,0,6.663-.022,7.8.03,8.935c.052,2.376.207,4.752.439,7.1a17.618,17.618,0,0,0,1.627,6.2,7.437,7.437,0,0,0,.775,1.291c.1.129.207.284.31.413a3.775,3.775,0,0,0,.491.413l.129-.491c.155-.7.362-2.427.491-3.667.258-2.479.362-4.958.387-7.437,0-1.033.052-2.066.052-3.073V5.294" transform="translate(0 13.145)" fill="#fff"/></g><g transform="translate(1440.755 3722.702) rotate(-50)"><path d="M.61,8.935A3.051,3.051,0,0,0,.869,7.7C.74,7.024.791,6.4.662,5.733A14.342,14.342,0,0,1,.481,3.615,4.567,4.567,0,0,1,.765,2.066c.129-.439.31-1.11.465-1.549h0A3.776,3.776,0,0,0,1.359,0l3.28.723c0,1.24.026,1.911.026,2.97,0,1.6.026,3.176.1,4.777.026.542.052,1.085.077,1.653a2.461,2.461,0,0,1-.258,1.369l-.129.129-4.313-.93a1.158,1.158,0,0,1-.1-.878C.2,9.5.507,9.271.61,8.935" transform="translate(0.349 25.876)" fill="#fff"/><path d="M4.73,19.058h0c0,.775,0,3.047-.026,3.848,0,.258-.026.516-.026.8a2.505,2.505,0,0,1-.026.439c0,.1,0,.1-.1.155-.052.026-.1.026-.155.052l-4.029-.9C.288,22.26.03,19.885.03,18.826,0,17.69-.022,16.553.03,15.417c.052-2.376.207-4.752.439-7.1A17.618,17.618,0,0,1,2.1,2.118,7.437,7.437,0,0,1,2.87.826c.1-.129.207-.284.31-.413A3.775,3.775,0,0,1,3.671,0L3.8.491c.155.7.362,2.427.491,3.667.258,2.479.362,4.958.387,7.437,0,1.033.052,2.066.052,3.073V18c0,.362,0,.723,0,1.059" transform="translate(0 0)" fill="#fff"/></g></g></svg>