<svg xmlns="http://www.w3.org/2000/svg" width="160" height="102.042" viewBox="0 0 160 102.042"><g transform="translate(0 -0.1)"><g transform="translate(2.667 83.369)" class="logo-subtitle"><path d="M11.253,12.853,6.187.16,6.133,0H0V2.72H1.973V16H0v2.72H6.987V16H5.013V4.64l4.8,11.68.053.16H12.64L17.493,4.64V16H15.52v2.72h6.987V16H20.533V2.72h1.973V0h-6.08Z" fill="#fff"></path><path d="M49.753,2.72h1.973V16H49.753v2.72H63.62V12.747H60.9V16H54.767V10.72h6.56V8h-6.56V2.72h6.08V5.973h2.72V0H49.7V2.72Z" transform="translate(-23.193)" fill="#fff"></path><path d="M80.6,5.973h2.613V2.72h3.36V16H83.747v2.72H92.44V16H89.613V2.72h3.36V5.973h2.613V0H80.6Z" transform="translate(-37.613)" fill="#fff"></path><path d="M112.987,5.973h2.72V2.72h7.2L112.453,16.053l-.053.053v2.56h14.133v-5.92h-2.72V16H116.08l10.4-13.333.053-.053V0H112.987Z" transform="translate(-52.453)" fill="#fff"></path><path d="M148.14,0,145.1,3.253V15.52l3.04,3.253h7.573l3.04-3.253V8.853H152.14v2.72h3.893v2.56l-1.653,1.653h-4.907l-1.28-1.333V4.267l1.333-1.333h4.907l1.653,1.653V7.093h2.72V3.253L155.713,0Z" transform="translate(-67.713)" fill="#fff"></path><path d="M177.7,2.72h1.973V16H177.7v2.72h13.867V12.747h-2.72V16h-6.08V10.72h6.56V8h-6.56V2.72h6.08V5.973h2.72V0H177.7Z" transform="translate(-82.927)" fill="#fff"></path><path d="M222.993,11.947l2.72-2.827.053-.053V3.253L222.673,0H211.1V2.72h1.973V16H211.1v2.72h6.72V16h-1.707V12.267h3.733L222.087,16H221.5v2.72h5.493V16h-1.6ZM216.167,2.88h5.227l1.44,1.493V7.84L221.34,9.333h-5.227Z" transform="translate(-98.513)" fill="#fff"></path><path d="M247.9,2.72h1.973V16H247.9v2.72h13.867V12.747h-2.72V16h-6.08V10.72h6.56V8h-6.56V2.72h6.08V5.973h2.72V0H247.9Z" transform="translate(-115.687)" fill="#fff"></path><path d="M288.373,2.72V0H280.8V2.72h2.24V16H280.8v2.72h7.573V16h-2.24V2.72Z" transform="translate(-131.04)" fill="#fff"></path></g><g transform="translate(0 0.1)" class="logo-title"><g transform="translate(133.386 3.482)"><path d="M31.4,86.5v15.04l9.867-.48V86.5Z" transform="translate(-14.653 -40.367)" fill="#fff"></path><path d="M3.093,61.813l9.973-.48V2.24H16.16V0H0V2.24H3.093Z" fill="#fff"></path></g><g transform="translate(97.963 2.866)"><path d="M42.667,94.053a9.186,9.186,0,0,0,.213-2.08V66.8H28v2.24h4.96V94.533Z" transform="translate(-13.067 -31.167)" fill="#fff"></path><path d="M9.973,63.781V7.195a4.788,4.788,0,0,1,1.44-3.52,5.022,5.022,0,0,1,7.04,0,4.591,4.591,0,0,1,1.44,3.52V26.661h9.973V12.688a11.4,11.4,0,0,0-4.373-8.96A15.636,15.636,0,0,0,14.933-.005,15.636,15.636,0,0,0,4.373,3.728,11.4,11.4,0,0,0,0,12.688V60.795a11,11,0,0,0,.587,3.467Z" transform="translate(0 0.011)" fill="#fff"></path></g><g transform="translate(79.573)"><path d="M2.6,5.647a6.3,6.3,0,0,1,.533,2.56c-.267,1.387-.16,2.667-.427,4.053a29.62,29.62,0,0,0-.373,4.373,9.433,9.433,0,0,0,.587,3.2c.267.907.64,2.293.96,3.2h0A7.8,7.8,0,0,1,4.144,24.1l6.773-1.493c0-2.56.053-3.947.053-6.133,0-3.307.053-6.56.213-9.867.053-1.12.107-2.24.16-3.413A5.084,5.084,0,0,0,10.81.367L10.544.1,1.637,2.02a2.392,2.392,0,0,0-.213,1.813c.32.64.96,1.12,1.173,1.813" transform="translate(-0.615 -0.1)" fill="#e52143"></path><path d="M9.753,61.933h0c0-1.6,0-6.293-.053-7.947,0-.533-.053-1.067-.053-1.653a5.174,5.174,0,0,0-.053-.907c0-.213,0-.213-.213-.32-.107-.053-.213-.053-.32-.107L.739,52.867c-.16,2.453-.693,7.36-.693,9.547-.053,2.347-.107,4.693,0,7.04C.153,74.36.473,79.267.953,84.12c.48,4.373,1.333,8.907,3.36,12.8a15.359,15.359,0,0,0,1.6,2.667c.213.267.427.587.64.853a7.8,7.8,0,0,0,1.013.853l.267-1.013c.32-1.44.747-5.013,1.013-7.573.533-5.12.747-10.24.8-15.36,0-2.133.107-4.267.107-6.347V64.12c0-.747,0-1.493,0-2.187" transform="translate(0.015 -23.853)" fill="#e52143"></path></g><g transform="translate(39.731 3.482)"><path d="M39.6,105.753l9.973-.48V86.5H39.6Z" transform="translate(-18.48 -40.367)" fill="#fff"></path><path d="M3.093,66.187l9.973-.48V37.227H24.853v-2.24H13.067V2.24H21.12V26.08h9.973V0H0V2.24H3.093Z" fill="#fff"></path></g><path d="M3.093,74.653l9.973-.48V43.827h9.92v29.92l9.867-.48V8.84H36V6.6H19.84V8.84h3.147V41.587h-9.92V8.84H16.16V6.6H0V8.84H3.093Z" transform="translate(0 -3.133)" fill="#fff"></path></g></g></svg>