<svg xmlns="http://www.w3.org/2000/svg" width="207.584" height="115.056" viewBox="0 0 207.584 115.056"><path d="M205.9,59.6l-2.908-3.832-5.211-4.6-6.435-6.74-1.07-6.28-1.995-5.822-1-.786.386-.9,1.686-5.82.422-1.838,2.334-4.136,5.364-3.83.151-3.219-13.788,2.912-4.288,4.749-4.277,2.412-3.843-3.333-2.307-2.35h0L166.9,13.915l-.77,1.24-1.241-1.009.807-1.457-1.622-1.659L146.765,4.138H133.549V6.31l-1.784.233-.05-2.4H114.9L100.191.307,89.469.614,65.108,0,55.253,3.574l1.413,3.28L54.494,8.017,53.049,4.374l-1.337.485h0L38.913,9.5,24.969,18.691,18.382,30.336l.8,3.144-2.787,4.363-5.976-8.427-9.5,4.6L5.2,44.429l3.678,1.839,1.992.305L7.812,49.179l-4.289.92L0,49.638l2.449,3.219L9.19,51.017,14.4,45.962l2.3-.614,3.739-6.893,1.161,4.6,1.994,13.789,2.814,3.038.121.918c1.209,1.773,4.151,6.183,4.151,6.183L41.384,78.537l3.568,6.284.7,2.25s-.7,3.1-.7,3.336.7,2.095.776,2.328,1.24,2.172,1.24,2.406.778,8.068.778,8.3c0,.187-.446,4.816-.624,6.68l1.287,1.717-.3,2.3,11.949-.614v-1.07L55.3,106.934l-.461-6.892-.46-4.291,4.445-5.974,1.838-2.147-.046-.461L57.907,88l-.7-2.016,3.153-1.4L59.9,79.971l1.225-3.063,3.584-5.16c.183-.8.375-1.629.415-1.745l2.639.775-.127,1.849,5.287,2.442L86.249,79.2l5.974,2.3,12.412.155,7.005-3.017-6.487-2.662.543-2.562,7.371,2.792-.386,1.983,2.983-1.283,3.749-1.806,1.878-7.582c0-.232,2.4.312,2.4.312l-2.637,7.216,2.265,3.545,1.379,1.683,2.452,23.593,1.838,2.3,5.82.613h5.057l-.153-1.991-5.21-3.985.155-4.441,1.5-11.015,2.173,2.28,4.447,12.1,1.224,4.444,2.606,5.054-.768,2.758,4.751,1.687,2.811.436h0l6.072.945,1.074-1.687-5.21-5.82s-1.533-4.9-1.533-5.362a11.587,11.587,0,0,0-1.378-2.452L150.9,89.011l1.685-10.573-.614-3.368,1.685-4.137,1.708-1.308-.87-4.044,2.25-.31.621,4.077,8.853,3.268,11.032,3.524,7.965-1.531,4.9-1.838L197.933,72l.46,1.072,1.224,1.074,1.211-1.948v0l.449-.721,5.849-9.433.46-1.838ZM13.174,41.978,9.5,43.05l-3.83-6.128.461-2.142L9.5,33.092l3.064,2.758,1.686,3.217ZM177.382,28.421l.7,1.008a12.085,12.085,0,0,0-.234,1.241c0,.233-1.318,0-1.318,0l-.388-1.706ZM163.728,16.239l1.4.545s-1.784,4.888-1.784,5.12-1.551-.7-1.551-.7ZM160.7,23.534l1.631.542-1.241,5.432a16.956,16.956,0,0,0-2.1-.079c-.232.079,1.706-5.9,1.706-5.9M147.979,9.606l.349-1.047,2.385-1.221,1.8.523.64,1.629,1.86-.116,2.328-.407.642.639-1.455.7-3.141.29,2.792.815,1.163.583-.174.93-1.512-.523-3.667-.639-4.071-1.107Zm-.756,4.83.349-2.152.407-.176.756.525.176,2.093.988.293,1.57.29.117-1.222.523-.173.466.581.116,1.105,1.571.409.233-.642.407-1.57.988.29v2.5l-.582.931L152.982,17l-5.759-1.222Zm-1.4,4.947.931-1.281,2.444-.874,3.376.642s1.92,2.269,1.979,2.442a9.061,9.061,0,0,1-.117,1.4H151.7l-5.934-.872Zm-1.8-14.315.7.776-1.087.854-.542-1.009Zm-.758,28.512,1.105-.931,1.455-.233,2.677-.057,2.444,1.1.756,1.631L150.6,36.256l-5.994-.523-1.511-.756Zm5.935,6.75,1.573.349-.06.988-.93.117-3.609-.523-4.6-.874V39.282h2.559l1.92.233.29-1.164-3.666-.407-.815-.64.35-.7,8.379.874.7.7-.35.989-3.432-.525-.292,1.338Zm-13.789-1.514-3.839-.581.522-2.037,1.047-.815h1.4l1.224,1.281,1.221-1.281,1.047-.057,1.049.582.523,1.629-.117,1.513ZM137.349,48.9V51l-4.5-.312-.155-2.249Zm2.1.153,4.654.776-.077,1.94-4.577-.466Zm3.354-3.781a10.957,10.957,0,0,1-1.862-1.164c0-.176-.349-2.153-.349-2.328a2.242,2.242,0,0,1,.289-.64l.989.35.815,2.036,1.048.233,2.618-.64,1.746-.523,1.165,1.221.289,1.92-.872.117-.7-1.4-1.338-.176-2.211.873ZM138.746,7.707l1.32.466-.545,1.4-1.318-.31ZM135.585,16.3l.639-.64.583.7v2.5l1.454.059.466-1.8.814-.29.29,2.152,1.513.292.583-2.967.93.173-.289,4.073-.989.059-4.714-.465-1.629-.233Zm-.466,5.759,1.688-.756,1.8-.349,2.095.582,1.28,2.269-.233,1.28-3.024-.173-4.422-.525Zm-1.047,5.412,6.4-1.338.872.117.06,1.105-2.153.407-.174,1.28,1.979.523-.177.988-.812.176-6.284-2.27Zm3.2,5.761,1.8.232.116-1.1-.756-.409.292-.756,1.8.233.174,1.746-.35,1.4-1.745-.116-5.935-.814.116-.874ZM131.53,8.559h2.019l-.233,5.43-2.1.077Zm-.386,8.068,1.862.077-.93,5.663-1.786.233Zm-1.32,8.146,1.706-.155-.7,5.2-1.94.31Zm-1.4,7.371,1.706.31-.931,4.733-1.783.078Zm-1.087,7.06,1.63.31-1.009,5.819-1.786.077s1.088-5.819,1.165-6.207m-1.63,8.223,5.121,1.009v2.172l-5.2-.621Zm-.542,3.8,2.25.7-.545,3.8-2.561-.155Zm-3.027-30.259.932.622L122.3,22.6l-.776-.465ZM113.377,56.35l4.189.388-.233,1.939-4.267-.155s.233-1.784.31-2.172m-1.707-47.4.622.077s-.079.776-.079,1.009-.621.31-.852.465-.621-1.087-.621-1.087Zm-.388,47.324L111.05,58.6l-5.12-.466.233-2.326ZM86.534,19.809l4.734.466,7.059.93,2.715-1.784,2.948-2.948L88.01,14.689,87.076,13.6l.778-1.4,18.93,2.016,2.326.233.931,1.4-.854,1.164-1.939.388-3.956,4.189,4.344.156,1.474.542.155,1.786s-1.087.386-1.317.464-13.812-1.629-13.812-1.629l-8.146-.775-.232-1.4Zm-.543,5.9,1.085-.543,4.811.543,13.886,1.318,2.794.465.31,2.4a10.707,10.707,0,0,0-1.784.389c-.233.155-14.818-1.862-14.818-1.862l-6.516-1.242ZM85.293,33l4.268-1.629,8.456-.621,7.525,1.706L107.4,33.7l.155,3.027-1.706,2.093-5.429,1.551H91.188l-5.429-2.016-1.32-2.328ZM82.035,19.809l1.087.233-.7,1.318-.854-.542Zm5.121,34.369-.08,2.172-6.826-.31-.232-2.173ZM89.482,56.5v-1.94l6.594.543-.155,1.862Zm5.14,2.967v2.735l-.174,3.316-.815.059-.06-1.979-.987-.349-.932,1.164-.582-.582,1.105-2.211,1.63-2.5Zm-4.83-1.165.93-.115,1.049.523.289,1.513-.522,1.164-1.746.233-.583,1.8-.348.523-.639-.409.233-.7.465-1.806Zm-.621,7.508-.7,2.017L83.353,65.5l.932-2.25Zm-2.23-7.565-.407.466.7.989-.407,1.63-1.045.639-.932-.406-.523-.816.349-.523.872.174.349-.581-.407-1.165.407-1.337L87,57.028l1.28.639.057.989Zm-9.949,1.2,4.887,2.639s-.854,2.172-.931,2.4-4.655-3.258-4.655-3.258Zm-5.665-5.741V52.7l6.285.622.31,2.172Zm6.6-36.54c0,.233-1.32.7-1.32.7l-.388-2.017.621-.776,1.087.389Zm-.776,5.509-.621,1.473-.621-1.473.776-.7ZM75.673,3.362l.465.077.7.776-.931,1.163-1.165-.852Zm-.31,34.989.854-.466.543.854s-.466,1.318-1.629.932.232-1.32.232-1.32M71.64,19.11l1.085.312s-.31,1.164-.388,1.473-.778-.076-1.241-.156.543-1.629.543-1.629M68.692,51.927l-1.862.854s-.7-4.034-.778-4.265l2.173-.7ZM64.89,9.181l.7-.156-.079,1.241H64.424c-.233,0,.466-1.085.466-1.085m-3.8,12.568-1.55,1.008-1.707-5.509,2.017-.388ZM57.209,9.025c.079-.233,1.862,5.819,1.862,5.819l-1.862.621L55.193,9.8a8.214,8.214,0,0,0,2.016-.776M47.668,20.2l1.551.312v2.016l-1.551,1.009-.7-1.862Zm-5.586-2.249.619.31.31,1.318-1.24,1.087L41.384,18.8Zm-3.259,6.129.931.232.156,1.318-1.784.622-.312-1.63ZM28.816,44.324l-.156-2.715L32,39.127,33,40.291,32,42.23l.931,1.4,5.586-.156,7.6-2.017,1.707-1.629-.155-2.1-1.242-.852-1.939.466.465,1.629-.775.776-1.165-.621L40.374,34.7l.155-1.474,1.708-.31,1.24,2.173,5.509-1.786,2.638-.233.309,1.4-.621,1.164-1.862.465,1.629,2.716-1.629,3.336s-4.964,3.181-5.2,3.181S33.935,46.5,33.935,46.5Zm4.421,10.24-.31-3.1,1.164-.7,2.483,5.43L44.1,53.788l-1.474-5.2.7-1.242,1.241.466,2.25,4.733,6.127-2.4-1.473-4.5.233-1.4,1.32-.156L55.115,48.2l.93,3.8-5.353,1.862-3.878,1.94-.543.775-1.165-.621L39.365,57.28l-4.577,1.707v-.931ZM46.425,91.649l-.077-1.941L48.674,88.7l.233,1.862Zm4.345-1.475-.156-2.095,4.809-1.4.466,2.019Zm1.474-16.912.852-1.085,1.241,1.085-.852,1.164ZM59.77,62.633l-1.242-.155L46.581,66.358,39.055,69.15,37.814,69V66.978l4.5-1.707,10.083-3.1,4.268-1.63-1.939-4.964.156-1.242,1.706-.232,3.49,5.972.156,1.63ZM60,24.7l1.706-1.085,2.1,7.059-2.172,1.165Zm2.1,9.155,2.172-.776,1.626,5.43-2.326.776ZM64.191,41.3l2.172-.852,1.708,5.273-2.25,1.242Zm3.88,27.541-2.482-.7,1.394-5.818,1.864.775Zm-1.088-8.379s-.153-5.276-.153-5.9l1.939-.7S68.925,61,69,61.238s-2.019-.776-2.019-.776m3.492-5.9,5.043,3.647-.7,1.939-4.655-3.49ZM75.6,72.177l-1.71.852-1.4-.931.31-1.474,1.553.388.386-1.629a17.352,17.352,0,0,1-1.084-2.095c0-.232.542-2.792.542-2.792l1.4-.854,2.248.776.776,1.008-.776.854-1.862-1.009-.852.7.619,1.631.543,2.249Zm2.558,2.093-1.163-.465,1.163-2.4,1.63-4.577,1.241.543L78.932,72.8Zm6.363.543-2.095.622-1.629-.389.542-1.863L82.811,68.3l2.017.389,1.55,1.707-.542,2.558Zm7.99-1.551-3.336-1.085-.466,1.24,2.948,1.164-.232,1.088-3.259-1.009-.388,1.087,2.791,1.939-.386.7L87.311,77.3l-1.087-.932.7-1.862,1.629-3.958,4.188,1.32ZM96,71.4l-5.585-2.715.619-1.707,5.663,2.25Zm1.591-5.935-.932-.989L95.9,66.222l-.756-.29.7-2.735.814-3.374,2.037.464.814,1.282L98.986,63.2l-1.4.581.872,1.455.406,1.8-.7-.057Zm5.313,9.427L98.25,72.564l.619-2.249,4.811,2.4Zm1.028-12.162-2.037-.29-.406,1.629,1.979.523-.06.815-2.152-.174-.292,1.28,1.92,1.048-.465.931-2.792-1.28.755-3.55.64-2.559,2.153.173.872.7Zm-.1-4.751-5.508-.389-.077-2.249,5.972-.155Zm.312-6.9-.545-.931-1.627-.156L86.69,47.739l-3.025-.932.388-1.784,4.733.775,12.258,1.087,2.482.31.389-4.032-1.164-.156-.234-1.087.932-.776,3.337.31-.778,6.129-.775,3.025Zm5.721,14.507-1.4.815.872,1.746.466,2.036-.759.29s-.406-1.28-.464-1.454-1.629-2.153-1.629-2.153l-.932,2.91-.7-.29.583-3.084.7-4.713h1.28l1.571.523.815,1.629Zm1.8,5.47-.93-.117-.059-.872.29-1.455.406-2.792.583-2.967.64-.06.465.756-.758,4.249Zm6.516-3.725H117.2l-.232.872.93,1.107.233,1.57-.815,1.4-1.454.639-2.559-.93-.7-.64.7-3.143s1.281-4.48,1.338-4.655l1.455-.174,1.745.583.523,1.513Zm1.4-38.906h.7a5,5,0,0,1,.465,1.087c0,.233-1.241,1.008-1.241,1.008l-.622-.775Zm4.81,37.316s-2.4-.233-2.637-.233S123,60.849,123,60.849l2.4.389Zm1.862-6.6L119.2,58.91s0-.465.077-2.172l7.293.621Zm.388,12.88.156-1.32,2.095-.077.775-.621,1.088-.931-3.1-.466-.466-.542-.233-.854,5.2-1.164,1.863-.543.079,1.241-4.113,1.474,2.794.388.156.7-1.63,1.4,1.4.155,1.627.078-.075,1.087h-7.6Zm1.32,3.181,1.551-.622,1.4,1.009,2.715-2.562.388.545-1.551,2.4,2.483-.077-.079,1.085-7.293.932-.232-1.32Zm6.9,7.835-7.447-1.553L127.5,80.4l5.043-1.863,1.863-.7.465,1.085-1.707.622.31,1.783,1.707.622Zm.234-27.464.774-1.242,1.474-.465,2.482,1.4,1.32-1.86,1.551-.622.621,1.087-2.714,2.794,1.629-.079,1.551.079v1.008l-4.655.31-3.258.077-.464-.932Zm.7,3.956h.931l.931,2.25,2.172-.234-.155-1.706,1.008-.622.7,2.1,1.318-.155-.309-2.25,1.473-.233.543,2.483-.233,1.164-6.129.542-.854.543-.774-.621s-.622-3.027-.622-3.259m.931,6.9.621-1.553,2.1-1.007L142,63.487l2.172,1.474.233,1.707s-2.792.388-3.1.543-4.422.854-4.422.854Zm1.318,5.819V71.089l5.121-.852.309-1.32-1.007-.233-.077-.7,2.095-.234.386,2.483-.309.852Zm4.81,1.783-4.188.7-.156-.776.776-.31,5.43-1.008,1.241-.233v.931l-1.241.621,1.163,1.242.156,1.24-2.328.622-4.964.543v-.855l3.492-.621,1.784-.386.077-.932Zm-3.492,5.586,3.571-1.318,1.706-.077,1.862.232.776,1.474-.543,1.707-3.646.931-2.638.31-1.088-1.009Zm1.4,7.681,3.1-.855.156-1.629-2.483.079-1.164-.079.079-.7,6.982-1.085.775.31.078,1.008-3.1.543v1.318l2.794-.31.466.31-.31,1.164-3.8.31-3.492.388Zm7.911,3.956-.854-1.008-1.318.077-1.009.854-1.4,1.008-1.553-.388-1.473-2.017L142,88.778l.7,1.241,1.241.621,1.165-.932,1.783-.619,1.629.31.776,1.4Zm3.336-38.325L146.038,52l.077-1.86,5.975.854Zm.621-24.128-1.746-.057,1.4,1.746-.293.988-1.163.29-3.958-.349-2.908-.466.174-1.047,3.666.174,2.095.232.29-.579-1.048-1.282-1.686-.348-2.794-.64.234-.815,7.389.815.7.525Zm.466-2.677-7.739-.989-.523-.406.523-.874,4.773.931h1.919l.35-.931.7-1.4.931.292-.232,2.095Zm1.241,37.122L153.8,57.59l2.172.077.542,5.353Zm1.63-7.6h-1.863l.389-6.362,2.016.466Zm1.087-8.379-2.326-.156,1.317-6.205,1.862.232Zm-.621-8.767,1.784-6.593,1.706.309s-1.474,6.207-1.553,6.44-1.938-.156-1.938-.156m9.154,15.439-.932,1.551-.93-.776,1.164-2.792,1.241-5.043-2.328-1.318h-.776L161.4,50.531l-1.164,2.249-1.087.389-.542-.7,3.18-8.612s2.328-7.525,2.4-7.758,1.087-3.492,1.087-3.492l1.786.079-.078,1.32-2.638,8.612,1.63.774,1.551.622,4.268-9.621.7-1.085,1.009.7-1.241,3.18-4.189,10.938Zm4.421,15.362c-.232.155-.542-1.241-.542-1.241l.932-1.242.619.389s.31,1.4.388,1.629-1.163.31-1.4.466m2.406-10.939.7,1.24-.542,1.165-2.716-.932-3.1-1.706-.234-.931,1.242-3.027s2.173-5.739,2.328-5.972,3.026-6.594,3.026-6.594l1.94-4.267,4.809,2.948.31,1.862s-1.627.077-2.017.155-2.326-1.317-2.326-1.317l-3.878,8.842,2.87,2.483-.233,1.164-1.164-.156L170.864,52l-2.016,4.191Zm12.489-.854-.31,1.32-.852.309L182.5,64.107l-1.241.233-.7-.854,1.085-4.733-2.093-1.241-1.164-.466-2.947,3.337-1.089-.7-.309-1.629,2.715-3.181,6.517-7.059,2.173-2.25,1.4.621-.465,2.948L184.364,56.5Zm10.086,3.8a41.081,41.081,0,0,1-2.25,3.8l-3.645,1.94-3.8-.621.077-1.784,1.551-3.413,1.939-5.353,2.328-5.509a20.221,20.221,0,0,1,2.173,1.784l1.629,3.414Z" fill="#fff"/></svg>