<svg xmlns:xlink="http://www.w3.org/1999/xlink" xmlns="http://www.w3.org/2000/svg" width="144.329" height="21.775" viewBox="0 0 144.329 21.775"><g id="werbewind" transform="translate(-1437 -9560)"><g id="Gruppe_306" data-name="Gruppe 306" transform="translate(1437 9560)"><g id="Gruppe_305" data-name="Gruppe 305"><path id="Pfad_301" data-name="Pfad 301" d="M61.5,170.735l9.319-20.94-.348-.834H80.06L70.3,170.735Z" transform="translate(-44.768 -148.96)" fill="#3A3938"></path><path id="Pfad_302" data-name="Pfad 302" d="M41.161,165.4l6.931-15.567-.363-.871h9.589L49.963,165.4Z" transform="translate(-34.784 -148.959)" fill="#3A3938"></path><path id="Pfad_303" data-name="Pfad 303" d="M37,151.695l-1.14-2.734H28.636l4.627,11.1Z" transform="translate(-28.636 -148.96)" fill="#3A3938"></path></g></g><g id="Gruppe_308" data-name="Gruppe 308" transform="translate(1478.972 9560.604)"><path id="Pfad_304" data-name="Pfad 304" d="M129.321,158.884l-3.507,10.581h-4.06l-1.531-4.894-1.588,4.894h-4.06l-3.506-10.581h3.949l1.735,5.591,1.809-5.591h3.543l1.753,5.648,1.809-5.648Z" transform="translate(-111.07 -154.435)" fill="#3A3938"></path><path id="Pfad_305" data-name="Pfad 305" d="M171.943,158.5v3.869a6.665,6.665,0,0,0-.967-.078,2,2,0,0,0-2.244,2.283v4.7H164.36V158.7h4.159v1.142A4.29,4.29,0,0,1,171.943,158.5Z" transform="translate(-137.227 -154.248)" fill="#3A3938"></path><path id="Pfad_306" data-name="Pfad 306" d="M238.565,158.884l-3.507,10.581H231l-1.532-4.894-1.587,4.894h-4.06l-3.506-10.581h3.949L226,164.475l1.809-5.591h3.543l1.753,5.648,1.808-5.648Z" transform="translate(-164.692 -154.435)" fill="#3A3938"></path><g id="Gruppe_307" data-name="Gruppe 307" transform="translate(72.569 0)"><rect id="Rechteck_232" data-name="Rechteck 232" width="4.372" height="3.002" transform="translate(1.385)" fill="#3A3938"></rect><path id="Pfad_307" data-name="Pfad 307" d="M254.618,158.886l-1.021,2.948h1.385v7.632h4.372v-10.58Z" transform="translate(-253.597 -154.436)" fill="#3A3938"></path></g><path id="Pfad_308" data-name="Pfad 308" d="M276.492,159.684a4.814,4.814,0,0,1,1.189,3.56v6.035H273.31V164q0-1.818-1.3-1.819a1.514,1.514,0,0,0-1.189.513,2.393,2.393,0,0,0-.455,1.615v4.971H266V158.7h4.159v1.044a4.048,4.048,0,0,1,1.431-.929,4.919,4.919,0,0,1,1.761-.309A4.27,4.27,0,0,1,276.492,159.684Z" transform="translate(-187.114 -154.248)" fill="#3A3938"></path><path id="Pfad_309" data-name="Pfad 309" d="M296,150.147v5.164a3.688,3.688,0,0,0-2.688-.909,5.084,5.084,0,0,0-2.563.668,4.829,4.829,0,0,0-1.857,1.915,6.456,6.456,0,0,0,0,5.794,4.812,4.812,0,0,0,1.857,1.925,5.084,5.084,0,0,0,2.563.668,3.69,3.69,0,0,0,2.9-1.064v.871h4.158V150.147Zm-1.488,12.222a1.746,1.746,0,0,1-1.406-.66,2.8,2.8,0,0,1-.549-1.842,2.75,2.75,0,0,1,.549-1.83,1.847,1.847,0,0,1,2.812,0c.03.034.055.072.082.108V161.6c-.027.038-.053.075-.082.111A1.745,1.745,0,0,1,294.512,162.369Z" transform="translate(-198.014 -150.146)" fill="#3A3938"></path><path id="Pfad_310" data-name="Pfad 310" d="M183.5,150.146v5.165a3.688,3.688,0,0,1,2.688-.909,5.083,5.083,0,0,1,2.563.667,4.829,4.829,0,0,1,1.857,1.915,6.451,6.451,0,0,1,0,5.793,4.814,4.814,0,0,1-1.857,1.925,5.087,5.087,0,0,1-2.563.667,3.688,3.688,0,0,1-2.9-1.064v.871h-4.159v-15.03Zm1.488,12.223a1.746,1.746,0,0,0,1.405-.66,2.8,2.8,0,0,0,.549-1.843,2.75,2.75,0,0,0-.549-1.83,1.848,1.848,0,0,0-2.812,0c-.029.035-.055.072-.082.109V161.6c.027.037.053.075.082.111A1.747,1.747,0,0,0,184.992,162.369Z" transform="translate(-144.477 -150.146)" fill="#3A3938"></path><path id="Pfad_311" data-name="Pfad 311" d="M211.741,180.045" transform="translate(-160.483 -164.822)" fill="#3A3938"></path><path id="Pfad_312" data-name="Pfad 312" d="M211.741,173.687" transform="translate(-160.483 -161.701)" fill="#3A3938"></path><path id="Pfad_313" data-name="Pfad 313" d="M210.095,165.634a3.155,3.155,0,0,1-2.074.608,2.68,2.68,0,0,1-1.279-.319,1.76,1.76,0,0,1-.731-.919h6.945q.055-.928.055-1.025a5.664,5.664,0,0,0-.74-2.959,4.857,4.857,0,0,0-1.992-1.876,6.349,6.349,0,0,0-5.666.058,5.17,5.17,0,0,0-2.029,1.944,5.747,5.747,0,0,0,.009,5.658,5.152,5.152,0,0,0,2.12,1.963,6.849,6.849,0,0,0,3.18.706,6.324,6.324,0,0,0,3.227-.755Zm-3.609-3.783a1.553,1.553,0,0,1,1.06-.368,1.53,1.53,0,0,1,1.06.377,1.81,1.81,0,0,1,.548,1.035h-3.217A1.769,1.769,0,0,1,206.486,161.851Z" transform="translate(-155.625 -154.248)" fill="#3A3938"></path><path id="Pfad_314" data-name="Pfad 314" d="M151.234,165.634a3.154,3.154,0,0,1-2.074.608,2.681,2.681,0,0,1-1.279-.319,1.756,1.756,0,0,1-.731-.919h6.945q.055-.928.055-1.025a5.664,5.664,0,0,0-.74-2.959,4.857,4.857,0,0,0-1.992-1.876,6.348,6.348,0,0,0-5.665.058,5.172,5.172,0,0,0-2.029,1.944,5.745,5.745,0,0,0,.009,5.658,5.15,5.15,0,0,0,2.12,1.963,6.845,6.845,0,0,0,3.18.706,6.322,6.322,0,0,0,3.227-.755Zm-3.608-3.783a1.551,1.551,0,0,1,1.06-.368,1.528,1.528,0,0,1,1.06.377,1.8,1.8,0,0,1,.548,1.035h-3.216A1.769,1.769,0,0,1,147.626,161.851Z" transform="translate(-126.734 -154.248)" fill="#3A3938"></path></g></g></svg>